# xmcd
#
# Track frame offsets:
#	150
#	15999
#	33659
#	55579
#	77908
#	100210
#	121761
#	142576
#	162409
#	182642
#	203420
#	224995
#	246011
#	260976
#	274920
#	296300
#
# Disc length: 4211 seconds
#
# Revision: 1
# Processed by: cddbd v1.5.2PL0 Copyright (c) Steve Scherf et al.
# Submitted via: EZCDAudioConverter 8.0.7.1
#
DISCID=e2107110
DTITLE=Tom Vanderbilt - Traffic - WhyWeDriveThWayWeDo Rd By David Slavin
DYEAR=2008
DGENRE=Speech
TTITLE0=Disc 4, Track 01
TTITLE1=Disc 4, Track 02
TTITLE2=Disc 4, Track 03
TTITLE3=Disc 4, Track 04
TTITLE4=Disc 4, Track 05
TTITLE5=Disc 4, Track 06
TTITLE6=Disc 4, Track 07
TTITLE7=Disc 4, Track 08
TTITLE8=Disc 4, Track 09
TTITLE9=Disc 4, Track 10
TTITLE10=Disc 4, Track 11
TTITLE11=Disc 4, Track 12
TTITLE12=Disc 4, Track 13
TTITLE13=Disc 4, Track 14
TTITLE14=Disc 4, Track 15
TTITLE15=Disc 4, Track 16
EXTD=
EXTT0=
EXTT1=
EXTT2=
EXTT3=
EXTT4=
EXTT5=
EXTT6=
EXTT7=
EXTT8=
EXTT9=
EXTT10=
EXTT11=
EXTT12=
EXTT13=
EXTT14=
EXTT15=
PLAYORDER=
